<?xml version="1.0" encoding="UTF-8"?>
<svg width="512pt" height="512pt" version="1.1" viewBox="0 0 512 512" xmlns="http://www.w3.org/2000/svg">
 <g>
  <path fill="#ffffff" d="m449.3 243.39c-7.3594 1.2383-14.934 1.9414-22.633 1.9414-5.2461 0-10.391-0.33984-15.488-0.91797-1.0664-0.12891-2.1133-0.33984-3.1797-0.46875-4.1172-0.55469-8.2578-1.2812-12.289-2.1992-0.76953-0.19141-1.5352-0.38281-2.3047-0.59766-4.3945-1.1094-8.7266-2.3477-12.93-3.8828-0.38281-0.12891-0.70312-0.25781-1.0469-0.38281-4.6719-1.707-9.2148-3.625-13.633-5.7812l-0.042969-0.019531 82.246 131.59v64h-384v-64l70.25-70.25c8.2969-8.2969 21.867-8.2969 30.164 0l55.168 55.168c8.2969 8.2969 20.16 6.9336 26.367-3.0078l84.074-134.51c0.61719-0.98047 1.3672-1.4062 2.0703-2.1992-0.019531-0.019532-0.019531-0.019532-0.0625-0.0625-6.6992-6.2734-12.82-13.25-18.219-20.758-0.019531 0-0.019531-0.019531-0.019531-0.019531-2.625-3.6484-5.0352-7.4648-7.2969-11.348-0.10547-0.17188-0.21484-0.33984-0.32031-0.51172-2.1133-3.6914-4.0117-7.4883-5.7812-11.371-0.21484-0.42578-0.40625-0.83203-0.61719-1.2578-1.5781-3.625-3.0078-7.3594-4.2891-11.156-0.25781-0.70312-0.53516-1.4062-0.78906-2.1562-1.1289-3.5195-2.0469-7.1484-2.9219-10.793-0.21484-1.0234-0.53516-1.9844-0.74609-3.0312-0.76953-3.543-1.2578-7.168-1.75-10.793-0.14844-1.1719-0.36328-2.2617-0.51172-3.4141-0.49219-4.7617-0.76953-9.6055-0.76953-14.531 0-14.891 2.4102-29.207 6.7422-42.668h-252.07c-23.469 0-42.668 19.199-42.668 42.668v341.33c0 23.465 19.199 42.668 42.668 42.668h426.67c23.465 0 42.668-19.199 42.668-42.668l-0.003906-232.19c-15.703 12.289-34.262 20.906-54.336 25.559-2.793 0.67969-5.5039 1.5547-8.3633 2.0234zm-342.63-30.059c-23.574 0-42.668-19.113-42.668-42.664s19.094-42.668 42.668-42.668c23.594 0 42.668 19.113 42.668 42.668-0.003907 23.551-19.074 42.664-42.668 42.664z"/>
  <path fill="#ffffff" d="m448 21.332h-42.668v64h-64v42.668h64v64h42.668v-64h64v-42.668h-64z"/>
 </g>
</svg>
