<?xml version="1.0" encoding="UTF-8"?>
<svg id="Layer_1" xmlns="http://www.w3.org/2000/svg" version="1.1" viewBox="0 0 512 512">
  <path fill="#0092e4" d="M479.8,349c0,29.1-23.7,52.8-52.8,52.8H75.5c-29.2,0-52.8-23.6-52.8-52.8s23.6-52.7,52.8-52.7c0,0,0-105.5,0-105.5,0-97.1,78.7-175.8,175.8-175.8s175.8,78.7,175.8,175.8v105.5c29.1,0,52.8,23.6,52.8,52.8h0ZM427,331.5c-19.4,0-35.1-15.7-35.1-35.2v-105.5c0-77.7-63-140.6-140.7-140.6S110.6,113.1,110.6,190.8v105.5c0,19.4-15.7,35.2-35.1,35.2s-17.6,7.9-17.6,17.6,7.9,17.6,17.7,17.6h351.5c9.8,0,17.7-7.9,17.7-17.6s-7.9-17.6-17.6-17.6h0ZM172.1,428.2h35.2c0,24.3,19.7,44,44,44s44-19.7,44-44h35.2c0,43.7-35.4,79.1-79.1,79.1s-79.1-35.4-79.1-79.1h0Z"/>
</svg>
