<?xml version="1.0" encoding="UTF-8"?>
<svg width="512pt" height="512pt" version="1.1" viewBox="0 0 512 512" xmlns="http://www.w3.org/2000/svg">
 <g>
  <path fill="#0092E4" d="m433.73 124.34h-78.988l-24.086-48.164c-4.8672-9.7578-17.676-17.664-28.578-17.664h-92.16c-10.906 0-23.711 7.9062-28.578 17.664l-24.086 48.164h-78.992c-29.09 0-52.664 23.582-52.664 52.66v223.82c0 29.082 23.578 52.652 52.664 52.652h355.47c29.086 0 52.66-23.57 52.66-52.652v-223.82c0-29.078-23.574-52.66-52.664-52.66zm-177.73 276.48c-61.812 0-111.91-50.094-111.91-111.9 0-61.824 50.094-111.91 111.91-111.91s111.91 50.09 111.91 111.91c0 61.809-50.094 111.9-111.91 111.9z"/>
  <path fill="#0092E4" d="m328.41 288.92c0 39.992-32.422 72.41-72.414 72.41s-72.414-32.418-72.414-72.41c0-39.992 32.422-72.414 72.414-72.414s72.414 32.422 72.414 72.414"/>
 </g>
</svg>
