<svg width="31" height="31" viewBox="0 0 31 31" fill="none" xmlns="http://www.w3.org/2000/svg">
<rect width="31" height="31" rx="15.5" fill="#DCEEFF"/>
<path d="M15.5418 20.4168C15.9727 20.4168 16.3861 20.588 16.6908 20.8927C16.9956 21.1974 17.1668 21.6108 17.1668 22.0418C17.1668 22.4727 16.9956 22.8861 16.6908 23.1908C16.3861 23.4957 15.9727 23.6668 15.5418 23.6668C15.1108 23.6668 14.6974 23.4957 14.3927 23.1908C14.088 22.8861 13.9168 22.4727 13.9168 22.0418C13.9168 21.6108 14.088 21.1974 14.3927 20.8927C14.6974 20.588 15.1108 20.4168 15.5418 20.4168ZM13.9168 15.5418C13.9168 15.9727 14.088 16.3861 14.3927 16.6908C14.6974 16.9956 15.1108 17.1668 15.5418 17.1668C15.9727 17.1668 16.3861 16.9956 16.6908 16.6908C16.9956 16.3861 17.1668 15.9727 17.1668 15.5418C17.1668 15.1108 16.9956 14.6974 16.6908 14.3927C16.3861 14.088 15.9727 13.9168 15.5418 13.9168C15.1108 13.9168 14.6974 14.088 14.3927 14.3927C14.088 14.6974 13.9168 15.1108 13.9168 15.5418ZM13.9168 9.04183C13.9168 9.47268 14.088 9.88607 14.3927 10.1908C14.6974 10.4956 15.1108 10.6668 15.5418 10.6668C15.9727 10.6668 16.3861 10.4956 16.6908 10.1908C16.9956 9.88607 17.1668 9.47266 17.1668 9.04183C17.1668 8.61079 16.9956 8.19739 16.6908 7.8927C16.3861 7.58802 15.9727 7.41683 15.5418 7.41683C15.1108 7.41683 14.6974 7.58802 14.3927 7.8927C14.088 8.19739 13.9168 8.6108 13.9168 9.04183Z" fill="#388BD7"/>
</svg>
