<?xml version="1.0" encoding="UTF-8"?>
<svg width="512pt" height="512pt" version="1.1" viewBox="0 0 512 512" xmlns="http://www.w3.org/2000/svg">
 <path fill="#A6A6A6" d="m501.33 74.668h-490.66c-6.4023 0-10.668 5.332-10.668 10.664v341.33c0 6.3984 4.2656 10.668 10.668 10.668h490.67c6.3984 0 10.668-4.2656 10.668-10.668l-0.003906-341.33c0-5.332-4.2656-10.664-10.668-10.664zm-480 36.266 145.07 145.07-145.07 145.07zm234.67 204.8-219.73-219.73h439.46zm-74.668-44.801 67.199 67.199c2.1328 2.1328 5.332 3.1992 7.4648 3.1992 3.1992 0 5.332-1.0664 7.4648-3.1992l67.199-67.199 145.07 145.07h-439.47zm164.27-14.934 145.07-145.07v290.13z"/>
</svg>
