<svg width="917" height="326" viewBox="0 0 917 326" fill="none" xmlns="http://www.w3.org/2000/svg">
<path fill-rule="evenodd" clip-rule="evenodd" d="M211.187 171.103C211.187 171.103 175.875 161.71 184.875 128.137L190.372 107.621C167.533 79.7283 188.873 38.6506 234.936 35.439C262.672 33.5059 300.038 42.7807 316.673 81.2352C360.042 181.478 182.109 242.433 168.121 325.051C143.833 221.417 306.802 173.369 269.376 108.548C259.15 90.8371 224.762 85.6374 216.749 115.543C208.737 145.449 211.91 133.598 209.908 141.077C207.906 148.556 205.525 163.443 211.187 171.103ZM161.951 0.380371C195.417 0.380371 226.252 11.6651 250.859 30.6298C246.537 30.2723 241.329 30.0661 235.799 30.352C214.473 16.7218 189.131 8.82196 161.948 8.82196C134.762 8.82196 109.421 16.7218 88.0967 30.352C82.5698 30.0661 77.3619 30.2723 73.0366 30.6298C97.6437 11.6651 128.479 0.380371 161.951 0.380371ZM304.531 176.592C298.572 204.628 284.557 229.686 265.023 249.222C245.212 269.031 219.725 283.167 191.213 288.977C193.432 285.903 196.173 282.235 199.413 278.303C222.274 271.833 242.712 259.591 259.051 243.253C273.679 228.624 285.022 210.707 291.879 190.711C296.117 186.196 300.417 181.434 304.531 176.592ZM132.686 288.977C104.171 283.167 78.6873 269.031 58.8757 249.222C39.3391 229.686 25.3239 204.628 19.3681 176.592C23.4816 181.434 27.7822 186.196 32.0167 190.711C38.8744 210.707 50.2169 228.624 64.8453 243.253C81.184 259.591 101.622 271.836 124.486 278.303C127.725 282.235 130.469 285.903 132.686 288.977ZM161.951 13.9886C185.686 13.9886 207.959 20.2496 227.212 31.2044C223.989 31.6911 220.756 32.3896 217.616 33.3547C200.834 25.0561 181.936 20.3954 161.951 20.3954C141.963 20.3954 123.067 25.0589 106.286 33.3547C103.143 32.3896 99.9122 31.6939 96.6868 31.2044C115.94 20.2496 138.213 13.9886 161.951 13.9886ZM282.459 200.478C275.84 215.137 266.623 228.377 255.399 239.604C241.596 253.405 224.757 264.167 205.968 270.802C210.024 266.441 214.618 262.006 219.722 257.878C231.265 251.898 241.763 244.185 250.868 235.075C256.711 229.235 261.979 222.82 266.585 215.923C270.63 212.129 276.236 206.767 282.459 200.478ZM117.928 270.799C99.1394 264.164 82.3004 253.402 68.4997 239.601C57.2726 228.374 48.0556 215.137 41.4371 200.476C47.6652 206.764 53.2718 212.126 57.3111 215.918C61.9169 222.814 67.1853 229.229 73.0256 235.07C82.1326 244.179 92.631 251.892 104.174 257.873C109.278 262.003 113.872 266.438 117.928 270.799ZM112.709 171.103C112.709 171.103 148.018 161.71 139.021 128.137L133.527 107.618C156.363 79.7256 135.023 38.6479 88.9628 35.4362C61.2267 33.5032 23.8611 42.7779 7.22546 81.2324C-36.1427 181.475 141.79 242.431 155.778 325.048C180.069 221.415 17.0968 173.366 54.5202 108.545C64.7463 90.8344 99.134 85.6347 107.149 115.54C115.162 145.446 111.986 133.595 113.991 141.074C115.995 148.553 118.374 163.443 112.709 171.103ZM120.972 71.658C124.283 71.658 126.966 74.3417 126.966 77.655C126.966 80.9657 124.283 83.6494 120.972 83.6494C117.661 83.6494 114.975 80.9657 114.975 77.655C114.975 74.3417 117.661 71.658 120.972 71.658ZM202.927 71.658C199.616 71.658 196.932 74.3417 196.932 77.655C196.932 80.9657 199.616 83.6494 202.927 83.6494C206.237 83.6494 208.924 80.9657 208.924 77.655C208.921 74.3417 206.237 71.658 202.927 71.658Z" fill="#EDEDED"/>
<path fill-rule="evenodd" clip-rule="evenodd" d="M211.187 171.103C211.187 171.103 175.875 161.71 184.875 128.136L190.371 107.621C167.533 79.7281 188.873 38.6504 234.936 35.4388C249.773 34.4049 267.368 36.5826 283.069 44.7162C283.182 44.796 283.297 44.8675 283.41 44.95C333.499 81.0232 283.443 141.53 251.516 173.68C270.965 151.952 282.5 131.279 269.373 108.545C259.147 90.8341 224.759 85.6345 216.747 115.54C208.734 145.446 211.907 133.595 209.905 141.074C207.904 148.553 205.525 163.443 211.187 171.103ZM40.8266 44.7134C40.7138 44.7932 40.5983 44.8647 40.4856 44.9472C-9.60289 81.0205 40.4526 141.527 72.3793 173.677C52.9307 151.949 41.3957 131.277 54.52 108.542C64.7461 90.8314 99.1339 85.6317 107.149 115.537C115.162 145.443 111.986 133.592 113.99 141.071C115.995 148.55 118.371 163.44 112.709 171.1C112.709 171.1 148.018 161.707 139.021 128.134L133.527 107.618C156.363 79.7253 135.023 38.6476 88.9627 35.436C74.1226 34.4021 56.5301 36.5798 40.8266 44.7134ZM120.972 71.6577C124.283 71.6577 126.966 74.3414 126.966 77.6548C126.966 80.9655 124.283 83.6491 120.972 83.6491C117.661 83.6491 114.975 80.9655 114.975 77.6548C114.975 74.3414 117.661 71.6577 120.972 71.6577ZM202.927 71.6577C199.616 71.6577 196.932 74.3414 196.932 77.6548C196.932 80.9655 199.616 83.6491 202.927 83.6491C206.237 83.6491 208.924 80.9655 208.924 77.6548C208.921 74.3414 206.237 71.6577 202.927 71.6577Z" fill="white"/>
<path d="M397.514 220.652H424.084C440.683 220.652 452.843 207.377 452.843 192.258V119.945C452.843 104.826 440.683 91.5508 424.084 91.5508H397.514C396.592 91.5508 395.67 92.2808 395.67 93.3951V218.808C395.67 219.73 396.419 220.652 397.514 220.652ZM415.957 198.521V113.682C415.957 112.76 416.707 111.838 417.802 111.838H424.084C428.867 111.838 432.556 115.527 432.556 119.945V192.258C432.556 196.676 428.867 200.365 424.084 200.365H417.802C416.879 200.365 415.957 199.635 415.957 198.521ZM460.97 93.3951V218.808C460.97 219.73 461.7 220.652 462.814 220.652H479.413C480.335 220.652 481.257 219.922 481.257 218.808V93.3951C481.257 92.4729 480.508 91.5508 479.413 91.5508H462.814C461.892 91.5508 460.97 92.2808 460.97 93.3951ZM487.52 93.3951L507.078 218.808C507.251 219.73 508.173 220.652 509.287 220.652H525.886C526.808 220.652 527.903 219.922 528.095 218.808L537.509 157.946C537.682 156.832 538.047 157.024 538.239 157.946L547.652 218.808C547.825 219.73 548.747 220.652 549.862 220.652H566.46C567.383 220.652 568.478 219.922 568.67 218.808L588.227 93.3951C588.4 92.4729 587.843 91.5508 586.748 91.5508H570.149C569.227 91.5508 568.113 92.2808 568.113 93.3951L558.334 168.82C558.334 169.934 557.969 169.742 557.969 168.82L548.19 93.3951C548.19 92.4729 547.268 91.5508 546.173 91.5508H529.574C528.652 91.5508 527.538 92.2808 527.538 93.3951L517.759 168.82C517.759 169.934 517.394 169.742 517.394 168.82L507.616 93.3951C507.616 92.4729 506.693 91.5508 505.598 91.5508H489C488.077 91.5508 487.328 92.2808 487.52 93.3951ZM584.904 220.652H601.502C602.597 220.652 603.52 219.73 603.52 218.808L605.556 204.054C605.556 202.939 606.67 202.209 607.592 202.209H619.388C620.503 202.209 621.425 203.131 621.425 204.054L623.442 218.808C623.442 219.922 624.556 220.652 625.478 220.652H642.077C643.172 220.652 643.729 219.73 643.556 218.808L623.999 93.3951C623.807 92.2808 622.712 91.5508 621.79 91.5508H605.191C604.077 91.5508 603.155 92.4729 602.982 93.3951L583.424 218.808C583.232 219.922 583.981 220.652 584.904 220.652ZM608.515 180.078L613.298 143.384C613.298 142.269 613.663 142.461 613.663 143.384L618.466 180.078C618.466 181.192 617.736 181.922 616.814 181.922H610.167C609.052 181.922 608.515 181 608.515 180.078ZM688.55 220.652H715.1C731.699 220.652 743.879 207.377 743.879 192.258V119.945C743.879 104.826 731.699 91.5508 715.1 91.5508H688.55C687.628 91.5508 686.706 92.2808 686.706 93.3951V218.808C686.706 219.73 687.436 220.652 688.55 220.652ZM706.993 198.521V113.682C706.993 112.76 707.723 111.838 708.837 111.838H715.1C719.903 111.838 723.592 115.527 723.592 119.945V192.258C723.592 196.676 719.903 200.365 715.1 200.365H708.837C707.915 200.365 706.993 199.635 706.993 198.521ZM749.777 220.652H766.376C767.49 220.652 768.412 219.73 768.412 218.808L770.429 204.054C770.429 202.939 771.544 202.209 772.466 202.209H784.262C785.376 202.209 786.298 203.131 786.298 204.054L788.335 218.808C788.335 219.922 789.43 220.652 790.352 220.652H806.951C808.065 220.652 808.622 219.73 808.43 218.808L788.872 93.3951C788.7 92.2808 787.585 91.5508 786.663 91.5508H770.064C768.969 91.5508 768.047 92.4729 767.855 93.3951L748.298 218.808C748.125 219.922 748.855 220.652 749.777 220.652ZM773.388 180.078L778.191 143.384C778.191 142.269 778.556 142.461 778.556 143.384L783.34 180.078C783.34 181.192 782.609 181.922 781.687 181.922H775.04C773.945 181.922 773.388 181 773.388 180.078ZM855.268 91.5508H809.16C808.065 91.5508 807.316 92.4729 807.316 93.3951V109.994C807.316 111.108 808.238 111.838 809.16 111.838H820.226C821.148 111.838 822.07 112.568 822.07 113.682V218.808C822.07 219.73 822.819 220.652 823.914 220.652H840.513C841.435 220.652 842.357 219.922 842.357 218.808V113.682C842.357 112.76 843.107 111.838 844.202 111.838H855.268C856.19 111.838 857.112 111.108 857.112 109.994V93.3951C857.112 92.4729 856.382 91.5508 855.268 91.5508ZM867.083 93.3951V218.808C867.083 219.73 867.813 220.652 868.927 220.652H915.035C915.957 220.652 916.879 219.922 916.879 218.808V202.209C916.879 201.287 916.13 200.365 915.035 200.365H889.214C888.292 200.365 887.37 199.635 887.37 198.521V168.09C887.37 167.167 888.1 166.245 889.214 166.245H905.813C906.735 166.245 907.657 165.515 907.657 164.401V147.802C907.657 146.88 906.908 145.958 905.813 145.958H889.214C888.292 145.958 887.37 145.228 887.37 144.114V113.682C887.37 112.76 888.1 111.838 889.214 111.838H915.035C915.957 111.838 916.879 111.108 916.879 109.994V93.3951C916.879 92.4729 916.13 91.5508 915.035 91.5508H868.927C868.005 91.5508 867.083 92.2808 867.083 93.3951Z" fill="white"/>
</svg>
