<svg width="1071" height="326" viewBox="0 0 1071 326" fill="none" xmlns="http://www.w3.org/2000/svg">
<path fill-rule="evenodd" clip-rule="evenodd" d="M211.187 171.103C211.187 171.103 175.875 161.71 184.875 128.137L190.372 107.621C167.533 79.7283 188.873 38.6506 234.936 35.439C262.672 33.5059 300.038 42.7807 316.673 81.2352C360.042 181.478 182.109 242.433 168.121 325.051C143.833 221.417 306.802 173.369 269.376 108.548C259.15 90.8371 224.762 85.6374 216.749 115.543C208.737 145.449 211.91 133.598 209.908 141.077C207.906 148.556 205.525 163.443 211.187 171.103ZM161.951 0.380371C195.417 0.380371 226.252 11.6651 250.859 30.6298C246.537 30.2723 241.329 30.0661 235.799 30.352C214.473 16.7218 189.131 8.82196 161.948 8.82196C134.762 8.82196 109.421 16.7218 88.0967 30.352C82.5698 30.0661 77.3619 30.2723 73.0366 30.6298C97.6437 11.6651 128.479 0.380371 161.951 0.380371ZM304.531 176.592C298.572 204.628 284.557 229.686 265.023 249.222C245.212 269.031 219.725 283.167 191.213 288.977C193.432 285.903 196.173 282.235 199.413 278.303C222.274 271.833 242.712 259.591 259.051 243.253C273.679 228.624 285.022 210.707 291.879 190.711C296.117 186.196 300.417 181.434 304.531 176.592ZM132.686 288.977C104.171 283.167 78.6873 269.031 58.8757 249.222C39.3391 229.686 25.3239 204.628 19.3681 176.592C23.4816 181.434 27.7822 186.196 32.0167 190.711C38.8744 210.707 50.2169 228.624 64.8453 243.253C81.184 259.591 101.622 271.836 124.486 278.303C127.725 282.235 130.469 285.903 132.686 288.977ZM161.951 13.9886C185.686 13.9886 207.959 20.2496 227.212 31.2044C223.989 31.6911 220.756 32.3896 217.616 33.3547C200.834 25.0561 181.936 20.3954 161.951 20.3954C141.963 20.3954 123.067 25.0589 106.286 33.3547C103.143 32.3896 99.9122 31.6939 96.6868 31.2044C115.94 20.2496 138.213 13.9886 161.951 13.9886ZM282.459 200.478C275.84 215.137 266.623 228.377 255.399 239.604C241.596 253.405 224.757 264.167 205.968 270.802C210.024 266.441 214.618 262.006 219.722 257.878C231.265 251.898 241.763 244.185 250.868 235.075C256.711 229.235 261.979 222.82 266.585 215.923C270.63 212.129 276.236 206.767 282.459 200.478ZM117.928 270.799C99.1394 264.164 82.3004 253.402 68.4997 239.601C57.2726 228.374 48.0556 215.137 41.4371 200.476C47.6652 206.764 53.2718 212.126 57.3111 215.918C61.9169 222.814 67.1853 229.229 73.0256 235.07C82.1326 244.179 92.631 251.892 104.174 257.873C109.278 262.003 113.872 266.438 117.928 270.799ZM112.709 171.103C112.709 171.103 148.018 161.71 139.021 128.137L133.527 107.618C156.363 79.7256 135.023 38.6479 88.9628 35.4362C61.2267 33.5032 23.8611 42.7779 7.22546 81.2324C-36.1427 181.475 141.79 242.431 155.778 325.048C180.069 221.415 17.0968 173.366 54.5202 108.545C64.7463 90.8344 99.134 85.6347 107.149 115.54C115.162 145.446 111.986 133.595 113.991 141.074C115.995 148.553 118.374 163.443 112.709 171.103ZM120.972 71.658C124.283 71.658 126.966 74.3417 126.966 77.655C126.966 80.9657 124.283 83.6494 120.972 83.6494C117.661 83.6494 114.975 80.9657 114.975 77.655C114.975 74.3417 117.661 71.658 120.972 71.658ZM202.927 71.658C199.616 71.658 196.932 74.3417 196.932 77.655C196.932 80.9657 199.616 83.6494 202.927 83.6494C206.237 83.6494 208.924 80.9657 208.924 77.655C208.921 74.3417 206.237 71.658 202.927 71.658Z" fill="#0092E4"/>
<path fill-rule="evenodd" clip-rule="evenodd" d="M211.187 171.103C211.187 171.103 175.875 161.71 184.875 128.136L190.371 107.621C167.533 79.7281 188.873 38.6504 234.936 35.4388C249.773 34.4049 267.368 36.5826 283.069 44.7162C283.182 44.796 283.297 44.8675 283.41 44.95C333.499 81.0232 283.443 141.53 251.516 173.68C270.965 151.952 282.5 131.279 269.373 108.545C259.147 90.8341 224.759 85.6345 216.747 115.54C208.734 145.446 211.907 133.595 209.905 141.074C207.904 148.553 205.525 163.443 211.187 171.103ZM40.8266 44.7134C40.7138 44.7932 40.5983 44.8647 40.4856 44.9472C-9.60291 81.0205 40.4526 141.527 72.3793 173.677C52.9307 151.949 41.3957 131.277 54.52 108.542C64.7461 90.8314 99.1339 85.6317 107.149 115.537C115.162 145.443 111.986 133.592 113.99 141.071C115.995 148.55 118.371 163.44 112.709 171.1C112.709 171.1 148.018 161.707 139.021 128.134L133.527 107.618C156.363 79.7253 135.023 38.6476 88.9627 35.436C74.1226 34.4021 56.5301 36.5798 40.8266 44.7134ZM120.972 71.6577C124.283 71.6577 126.966 74.3414 126.966 77.6548C126.966 80.9655 124.283 83.6491 120.972 83.6491C117.661 83.6491 114.975 80.9655 114.975 77.6548C114.975 74.3414 117.661 71.6577 120.972 71.6577ZM202.927 71.6577C199.616 71.6577 196.932 74.3414 196.932 77.6548C196.932 80.9655 199.616 83.6491 202.927 83.6491C206.237 83.6491 208.924 80.9655 208.924 77.6548C208.921 74.3414 206.237 71.6577 202.927 71.6577Z" fill="#57AEEB"/>
<path d="M393.406 248H428.071C449.727 248 465.591 230.52 465.591 210.611V115.389C465.591 95.4807 449.727 78 428.071 78H393.406C392.203 78 391 78.9613 391 80.4286V245.572C391 246.786 391.977 248 393.406 248ZM417.468 218.858V107.142C417.468 105.928 418.446 104.714 419.875 104.714H428.071C434.311 104.714 439.124 109.572 439.124 115.389V210.611C439.124 216.428 434.311 221.286 428.071 221.286H419.875C418.67 221.286 417.468 220.325 417.468 218.858ZM476.194 80.4286V245.572C476.194 246.786 477.147 248 478.6 248H500.256C501.459 248 502.662 247.039 502.662 245.572V80.4286C502.662 79.2142 501.685 78 500.256 78H478.6C477.397 78 476.194 78.9613 476.194 80.4286ZM510.833 80.4286L536.349 245.572C536.575 246.786 537.778 248 539.231 248H560.887C562.09 248 563.519 247.039 563.769 245.572L576.051 165.429C576.277 163.962 576.753 164.215 577.004 165.429L589.285 245.572C589.51 246.786 590.713 248 592.168 248H613.823C615.027 248 616.455 247.039 616.706 245.572L642.221 80.4286C642.447 79.2142 641.72 78 640.292 78H618.636C617.433 78 615.979 78.9613 615.979 80.4286L603.221 179.748C603.221 181.215 602.745 180.962 602.745 179.748L589.987 80.4286C589.987 79.2142 588.784 78 587.355 78H565.699C564.496 78 563.043 78.9613 563.043 80.4286L550.284 179.748C550.284 181.215 549.808 180.962 549.808 179.748L537.051 80.4286C537.051 79.2142 535.847 78 534.419 78H512.764C511.56 78 510.582 78.9613 510.833 80.4286ZM637.886 248H659.541C660.969 248 662.173 246.786 662.173 245.572L664.83 226.144C664.83 224.676 666.283 223.714 667.486 223.714H682.876C684.33 223.714 685.533 224.928 685.533 226.144L688.165 245.572C688.165 247.039 689.618 248 690.821 248H712.477C713.906 248 714.632 246.786 714.407 245.572L688.891 80.4286C688.641 78.9613 687.212 78 686.009 78H664.353C662.9 78 661.697 79.2142 661.471 80.4286L635.955 245.572C635.704 247.039 636.682 248 637.886 248ZM668.69 194.572L674.93 146.254C674.93 144.786 675.407 145.038 675.407 146.254L681.673 194.572C681.673 196.039 680.72 197 679.518 197H670.845C669.391 197 668.69 195.786 668.69 194.572ZM773.108 248H807.747C829.403 248 845.294 230.52 845.294 210.611V115.389C845.294 95.4807 829.403 78 807.747 78H773.108C771.906 78 770.703 78.9613 770.703 80.4286V245.572C770.703 246.786 771.655 248 773.108 248ZM797.17 218.858V107.142C797.17 105.928 798.123 104.714 799.576 104.714H807.747C814.013 104.714 818.826 109.572 818.826 115.389V210.611C818.826 216.428 814.013 221.286 807.747 221.286H799.576C798.373 221.286 797.17 220.325 797.17 218.858ZM852.989 248H874.645C876.098 248 877.301 246.786 877.301 245.572L879.933 226.144C879.933 224.676 881.387 223.714 882.59 223.714H897.98C899.433 223.714 900.636 224.928 900.636 226.144L903.294 245.572C903.294 247.039 904.723 248 905.925 248H927.581C929.035 248 929.762 246.786 929.511 245.572L903.995 80.4286C903.77 78.9613 902.315 78 901.113 78H879.457C878.028 78 876.825 79.2142 876.574 80.4286L851.059 245.572C850.834 247.039 851.786 248 852.989 248ZM883.793 194.572L890.059 146.254C890.059 144.786 890.536 145.038 890.536 146.254L896.777 194.572C896.777 196.039 895.823 197 894.621 197H885.948C884.52 197 883.793 195.786 883.793 194.572ZM990.619 78H930.463C929.035 78 928.058 79.2142 928.058 80.4286V102.286C928.058 103.753 929.261 104.714 930.463 104.714H944.901C946.104 104.714 947.307 105.675 947.307 107.142V245.572C947.307 246.786 948.284 248 949.712 248H971.368C972.571 248 973.774 247.039 973.774 245.572V107.142C973.774 105.928 974.753 104.714 976.181 104.714H990.619C991.822 104.714 993.024 103.753 993.024 102.286V80.4286C993.024 79.2142 992.072 78 990.619 78ZM1006.03 80.4286V245.572C1006.03 246.786 1006.99 248 1008.44 248H1068.59C1069.8 248 1071 247.039 1071 245.572V223.714C1071 222.5 1070.02 221.286 1068.59 221.286H1034.91C1033.7 221.286 1032.5 220.325 1032.5 218.858V178.787C1032.5 177.571 1033.45 176.357 1034.91 176.357H1056.56C1057.77 176.357 1058.97 175.396 1058.97 173.929V152.071C1058.97 150.857 1057.99 149.643 1056.56 149.643H1034.91C1033.7 149.643 1032.5 148.682 1032.5 147.215V107.142C1032.5 105.928 1033.45 104.714 1034.91 104.714H1068.59C1069.8 104.714 1071 103.753 1071 102.286V80.4286C1071 79.2142 1070.02 78 1068.59 78H1008.44C1007.24 78 1006.03 78.9613 1006.03 80.4286Z" fill="#0092E4"/>
</svg>
