<?xml version="1.0" encoding="UTF-8"?>
<svg width="512pt" height="512pt" version="1.1" viewBox="0 0 512 512" xmlns="http://www.w3.org/2000/svg">
 <g>
  <path fill="#B3B3B3" d="m279.89 512h-47.789c-7.8242 0.003906-15.379-2.8594-21.238-8.0469-5.8555-5.1914-9.6094-12.344-10.547-20.113l-5.1211-40.105c-10.047-3.2773-19.82-7.3438-29.227-12.16l-31.785 24.961c-6.1836 4.9258-13.98 7.3711-21.871 6.8555-7.8867-0.51172-15.305-3.9453-20.797-9.6289l-33.281-33.707c-5.6523-5.5234-9.0469-12.953-9.5195-20.84-0.47266-7.8906 2.0078-15.672 6.9609-21.828l24.746-31.785c-4.8164-9.4062-8.8828-19.18-12.16-29.227l-40.105-5.1211c-7.6953-0.92969-14.793-4.6211-19.973-10.391-5.1797-5.7656-8.0898-13.219-8.1875-20.969v-47.789c-0.0039062-7.8242 2.8594-15.379 8.0469-21.238 5.1914-5.8555 12.344-9.6094 20.113-10.547l40.105-5.1211c3.2773-10.047 7.3438-19.82 12.16-29.227l-24.961-31.785c-4.9258-6.1836-7.3711-13.98-6.8555-21.871 0.51172-7.8867 3.9453-15.305 9.6289-20.797l33.707-33.281c5.5234-5.6523 12.953-9.0469 20.84-9.5195 7.8906-0.47266 15.672 2.0078 21.828 6.9609l31.359 24.746c9.4102-4.8125 19.18-8.8789 29.227-12.16l5.1211-40.105c0.9375-7.7695 4.6914-14.922 10.547-20.113 5.8594-5.1875 13.414-8.0508 21.238-8.0469h47.789c7.8242-0.0039062 15.379 2.8594 21.238 8.0469 5.8555 5.1914 9.6094 12.344 10.547 20.113l5.1211 40.105c10.047 3.2812 19.816 7.3477 29.227 12.16l31.785-24.961c6.1836-4.9258 13.98-7.3711 21.871-6.8555 7.8867 0.51172 15.305 3.9453 20.797 9.6289l33.492 33.492v0.003906c5.6562 5.5195 9.0508 12.949 9.5234 20.836 0.47266 7.8906-2.0078 15.672-6.9609 21.828l-24.961 31.574c4.8164 9.4062 8.8828 19.18 12.16 29.227l40.105 5.1211c7.7695 0.9375 14.922 4.6914 20.113 10.547 5.1875 5.8594 8.0508 13.414 8.0469 21.238v47.789c0.003906 7.8242-2.8594 15.379-8.0469 21.238-5.1914 5.8555-12.344 9.6094-20.113 10.547l-40.105 5.1211c-3.2773 10.047-7.3438 19.82-12.16 29.227l24.746 31.785c4.9258 6.1836 7.3711 13.98 6.8594 21.871-0.51172 7.8867-3.9492 15.305-9.6328 20.797l-33.492 33.492c-5.5234 5.6562-12.953 9.0508-20.84 9.5234-7.8906 0.47266-15.672-2.0078-21.828-6.9609l-31.785-24.746v-0.003906c-9.4062 4.8203-19.18 8.8867-29.227 12.16l-5.1211 40.105v0.003907c-0.97656 7.6562-4.6914 14.703-10.453 19.836-5.7617 5.1367-13.188 8.0156-20.906 8.1094zm-114.99-103.68c2.0039-0.125 4 0.32031 5.7617 1.2812 11.941 6.6836 24.609 11.98 37.758 15.785 4.1289 1.168 7.1562 4.6992 7.6797 8.9609l5.9727 46.934c0.64453 5.3047 5.1094 9.3164 10.457 9.3867h47.785c5.3438-0.070313 9.8125-4.082 10.453-9.3867l5.9727-46.934c0.52344-4.2617 3.5508-7.793 7.6797-8.9609 12.855-3.8633 25.234-9.1602 36.906-15.785 3.5625-2.3477 8.1758-2.3477 11.734 0l37.332 29.012c3.957 3.5078 9.9102 3.5078 13.867 0l34.562-33.281c3.6328-3.9883 3.6328-10.09 0-14.078l-29.012-37.332h-0.003906c-2.3438-3.5625-2.3438-8.1758 0-11.734 6.6875-11.945 11.984-24.613 15.789-37.762 1.168-4.1289 4.6992-7.1562 8.957-7.6797l46.934-5.9727c5.3086-0.64063 9.3203-5.1094 9.3867-10.453v-48.215c-0.066406-5.3438-4.0781-9.8125-9.3867-10.453l-46.934-5.9727c-4.2578-0.52344-7.7891-3.5508-8.957-7.6797-3.9062-13.012-9.2734-25.535-16-37.332-2.3477-3.5625-2.3477-8.1758 0-11.734l29.863-37.973c3.5078-3.957 3.5078-9.9102 0-13.867l-34.133-33.922c-3.9883-3.6328-10.09-3.6328-14.078 0l-37.547 28.16c-3.5586 2.3438-8.1758 2.3438-11.734 0-11.938-6.6914-24.609-11.988-37.758-15.785-4.1328-1.168-7.1562-4.6992-7.6797-8.9609l-5.9727-46.934h-0.003906c-1.1172-4.9609-5.582-8.4414-10.664-8.3203h-47.789c-5.3438 0.070313-9.8125 4.082-10.453 9.3867l-5.9727 46.934c-0.52344 4.2617-3.5508 7.793-7.6797 8.9609-13.004 3.8281-25.527 9.125-37.332 15.785-3.5625 2.3477-8.1758 2.3477-11.734 0l-37.973-29.863c-3.957-3.5078-9.9102-3.5078-13.867 0l-33.922 34.133c-3.6328 3.9883-3.6328 10.09 0 14.078l28.16 37.547c2.9688 3.4727 3.3984 8.4453 1.0664 12.375-6.6836 11.941-11.98 24.609-15.785 37.758-1.168 4.1289-4.6992 7.1562-8.9609 7.6797l-46.934 5.9727c-5.3047 0.64453-9.3164 5.1094-9.3867 10.457v47.785c0.070313 5.3438 4.082 9.8125 9.3867 10.453l46.934 5.9727c4.2617 0.52344 7.793 3.5508 8.9609 7.6797 3.8633 12.855 9.1602 25.234 15.785 36.906 2.3477 3.5625 2.3477 8.1758 0 11.734l-29.863 37.973c-3.5078 3.957-3.5078 9.9102 0 13.867l34.133 33.922c3.9883 3.6328 10.09 3.6328 14.078 0l37.332-29.012v-0.003906c2.0469-1.25 4.4492-1.7734 6.8281-1.4922z"/>
  <path fill="#B3B3B3" d="m256 362.67c-28.289 0-55.422-11.238-75.426-31.242-20.004-20.004-31.242-47.137-31.242-75.426s11.238-55.422 31.242-75.426c20.004-20.004 47.137-31.242 75.426-31.242s55.422 11.238 75.426 31.242c20.004 20.004 31.242 47.137 31.242 75.426s-11.238 55.422-31.242 75.426c-20.004 20.004-47.137 31.242-75.426 31.242zm0-192c-22.633 0-44.336 8.9883-60.34 24.992s-24.992 37.707-24.992 60.34 8.9883 44.336 24.992 60.34 37.707 24.992 60.34 24.992 44.336-8.9883 60.34-24.992 24.992-37.707 24.992-60.34-8.9883-44.336-24.992-60.34-37.707-24.992-60.34-24.992z"/>
 </g>
</svg>
