<?xml version="1.0" encoding="UTF-8"?>
<svg width="512pt" height="512pt" version="1.1" viewBox="0 0 512 512" xmlns="http://www.w3.org/2000/svg">
 <path fill="#c8c8c8" d="m256 16c-63.652 0-124.7 25.285-169.71 70.293-45.008 45.012-70.293 106.05-70.293 169.71s25.285 124.7 70.293 169.71c45.012 45.008 106.05 70.293 169.71 70.293s124.7-25.285 169.71-70.293c45.008-45.012 70.293-106.05 70.293-169.71 0-42.129-11.09-83.516-32.152-120-21.066-36.484-51.363-66.781-87.848-87.848-36.484-21.062-77.871-32.152-120-32.152zm0 448c-55.164 0-108.07-21.914-147.08-60.922s-60.922-91.914-60.922-147.08 21.914-108.07 60.922-147.08 91.914-60.922 147.08-60.922 108.07 21.914 147.08 60.922 60.922 91.914 60.922 147.08-21.914 108.07-60.922 147.08-91.914 60.922-147.08 60.922z"/>
 <path fill="#c8c8c8" d="m273.76 130.08c-22.645-5.4414-46.527-0.20312-64.816 14.215-18.285 14.418-28.953 36.422-28.945 59.707h32c-0.046875-10.738 3.8359-21.121 10.914-29.195 7.0781-8.0742 16.867-13.281 27.516-14.637 10.652-1.3594 21.434 1.2227 30.312 7.2578 8.8789 6.0391 15.242 15.117 17.895 25.52 2.6523 10.406 1.4062 21.422-3.5 30.973s-13.133 16.977-23.137 20.883c-9.668 4.2773-17.859 11.309-23.551 20.215-5.6914 8.9062-8.6289 19.297-8.4492 29.863v41.121h32v-41.121c-0.19141-4.207 0.85938-8.375 3.0195-11.988 2.1641-3.6172 5.3438-6.5117 9.1406-8.332 16.969-6.7617 30.934-19.414 39.336-35.633s10.684-34.922 6.4258-52.688c-3.1211-13.699-10.047-26.242-19.98-36.18-9.9375-9.9336-22.48-16.859-36.18-19.98z"/>
 <path fill="#c8c8c8" d="m240 352h32v32h-32z"/>
</svg>
