<svg width="576" height="576" viewBox="0 0 576 576" fill="none" xmlns="http://www.w3.org/2000/svg">
<rect width="576" height="576" fill="#0092E4"/>
<path fill-rule="evenodd" clip-rule="evenodd" d="M356.285 299.767C356.285 299.767 307.313 286.741 319.795 240.18L327.418 211.727C295.744 173.044 325.339 116.075 389.222 111.621C427.688 108.94 479.509 121.803 502.579 175.134C562.725 314.156 315.959 398.691 296.559 513.27C262.875 369.545 488.889 302.91 436.985 213.013C422.803 188.45 375.112 181.239 363.999 222.714C352.888 264.189 357.288 247.753 354.512 258.126C351.735 268.498 348.433 289.144 356.285 299.767ZM288.002 63C334.415 63 377.178 78.6503 411.305 104.952C405.311 104.456 398.088 104.17 390.419 104.566C360.843 85.6632 325.697 74.7072 287.998 74.7072C250.295 74.7072 215.151 85.6632 185.577 104.566C177.912 104.17 170.69 104.456 164.691 104.952C198.818 78.6503 241.582 63 288.002 63ZM485.74 307.38C477.476 346.261 458.039 381.013 430.948 408.107C403.473 435.579 368.126 455.184 328.584 463.241C331.662 458.978 335.463 453.891 339.957 448.438C371.661 439.465 400.006 422.487 422.666 399.829C442.953 379.54 458.684 354.692 468.193 326.961C474.071 320.699 480.034 314.095 485.74 307.38ZM247.416 463.241C207.87 455.184 172.528 435.579 145.052 408.107C117.958 381.013 98.5205 346.261 90.2607 307.38C95.9655 314.095 101.93 320.699 107.802 326.961C117.313 354.692 133.043 379.54 153.331 399.829C175.99 422.487 204.335 439.469 236.044 448.438C240.536 453.891 244.341 458.978 247.416 463.241ZM288.002 81.8726C320.919 81.8726 351.809 90.5557 378.51 105.748C374.04 106.423 369.556 107.392 365.201 108.731C341.927 97.2216 315.719 90.7579 288.002 90.7579C260.282 90.7579 234.076 97.2255 210.803 108.731C206.444 107.392 201.964 106.427 197.49 105.748C224.192 90.5557 255.081 81.8726 288.002 81.8726ZM455.129 340.506C445.95 360.836 433.167 379.198 417.601 394.768C398.458 413.908 375.105 428.833 349.047 438.035C354.673 431.987 361.044 425.836 368.122 420.111C384.131 411.818 398.69 401.121 411.317 388.487C419.421 380.388 426.726 371.491 433.114 361.926C438.724 356.664 446.499 349.228 455.129 340.506ZM226.949 438.031C200.892 428.829 177.539 413.904 158.399 394.764C142.829 379.194 130.046 360.836 120.867 340.503C129.505 349.224 137.28 356.66 142.882 361.919C149.27 371.483 156.576 380.379 164.676 388.48C177.306 401.113 191.866 411.81 207.874 420.104C214.953 425.832 221.324 431.983 226.949 438.031ZM219.711 299.767C219.711 299.767 268.679 286.741 256.202 240.18L248.582 211.723C280.253 173.04 250.657 116.071 186.778 111.617C148.312 108.937 96.4919 121.799 73.4207 175.13C13.2754 314.152 260.042 398.689 279.441 513.266C313.129 369.543 87.1108 302.906 139.012 213.008C153.194 188.446 200.884 181.235 212 222.71C223.113 264.185 218.708 247.749 221.489 258.121C224.268 268.494 227.567 289.144 219.711 299.767ZM231.17 161.852C235.762 161.852 239.483 165.574 239.483 170.169C239.483 174.76 235.762 178.482 231.17 178.482C226.579 178.482 222.853 174.76 222.853 170.169C222.853 165.574 226.579 161.852 231.17 161.852ZM344.83 161.852C340.238 161.852 336.516 165.574 336.516 170.169C336.516 174.76 340.238 178.482 344.83 178.482C349.42 178.482 353.147 174.76 353.147 170.169C353.143 165.574 349.42 161.852 344.83 161.852Z" fill="white"/>
<path fill-rule="evenodd" clip-rule="evenodd" d="M356.285 299.767C356.285 299.767 307.313 286.74 319.795 240.178L327.417 211.726C295.744 173.043 325.339 116.074 389.222 111.62C409.799 110.186 434.2 113.207 455.975 124.487C456.132 124.597 456.291 124.697 456.448 124.811C525.914 174.839 456.494 258.753 412.216 303.341C439.189 273.207 455.186 244.537 436.981 213.008C422.799 188.445 375.108 181.234 363.996 222.709C352.883 264.184 357.284 247.749 354.508 258.121C351.732 268.493 348.433 289.143 356.285 299.767ZM120.021 124.483C119.864 124.594 119.704 124.693 119.548 124.807C50.0823 174.835 119.502 258.749 163.78 303.336C136.807 273.203 120.81 244.534 139.011 213.004C153.193 188.442 200.884 181.231 212 222.705C223.113 264.18 218.708 247.744 221.487 258.117C224.268 268.489 227.563 289.139 219.711 299.762C219.711 299.762 268.679 286.736 256.202 240.175L248.582 211.722C280.253 173.039 250.657 116.07 186.778 111.616C166.197 110.183 141.799 113.203 120.021 124.483ZM231.17 161.851C235.762 161.851 239.483 165.573 239.483 170.168C239.483 174.759 235.762 178.481 231.17 178.481C226.579 178.481 222.854 174.759 222.854 170.168C222.854 165.573 226.579 161.851 231.17 161.851ZM344.83 161.851C340.238 161.851 336.516 165.573 336.516 170.168C336.516 174.759 340.238 178.481 344.83 178.481C349.421 178.481 353.147 174.759 353.147 170.168C353.143 165.573 349.421 161.851 344.83 161.851Z" fill="white"/>
</svg>
