<?xml version="1.0" encoding="UTF-8"?>
<svg width="1200pt" height="1200pt" version="1.1" viewBox="0 0 1200 1200" xmlns="http://www.w3.org/2000/svg">
 <path fill="#ffffff" d="m391.79 802.23v267.48c0 37.746 30.602 68.336 68.348 68.336h609.58c37.746 0 68.336-30.59 68.336-68.336v-609.58c0-37.746-30.59-68.348-68.336-68.348h-267.48v-267.48c0-37.746-30.59-68.348-68.336-68.348h-609.58c-37.746 0-68.348 30.602-68.348 68.348v609.58c0 37.746 30.602 68.336 68.348 68.336h267.48zm68.113 0h-30.797v267.48c0 17.133 13.891 31.031 31.031 31.031h609.58c17.133 0 31.031-13.898 31.031-31.031v-609.59c0-17.133-13.898-31.02-31.031-31.02h-267.48v30.797h249.05c10.309 0 18.664 8.3477 18.664 18.652v572.73c0 10.145-8.0938 18.395-18.18 18.652l-0.48438 0.007813h-572.73c-10.309 0-18.652-8.3555-18.652-18.664v-249.05zm37.309 0v230.4h535.43v-535.43h-230.4v180.82l121.34 70.781c5.7305 3.3398 9.2578 9.4844 9.2578 16.121s-3.5273 12.77-9.2578 16.109l-261.2 152.36c-5.7656 3.3672-12.895 3.3945-18.691 0.0625-5.793-3.3242-9.3672-9.4922-9.3672-16.172v-115.06h-137.11zm305.02-81.008v12.672c0 37.746-30.59 68.336-68.336 68.336h-62.258v82.566l205.51-119.88-74.918-43.703zm-37.309-596.92v609.59c0 17.133-13.898 31.031-31.031 31.031h-609.58c-17.141 0-31.031-13.898-31.031-31.031v-609.58c0-17.141 13.891-31.031 31.02-31.031h609.59c17.133 0 31.031 13.891 31.031 31.02zm-30.797 18.43c0-10.309-8.3555-18.652-18.664-18.652h-572.73c-10.309 0-18.652 8.3477-18.652 18.652v572.73c0 10.309 8.3477 18.664 18.652 18.664h572.73c10.309 0 18.664-8.3555 18.664-18.664zm-549.89 554.08h273.16l-136.59-170.72zm496.36 0h-175.41l-57.637-72.035 92.516-138.77zm16.207-42.957v-492.46h-535.43v504.25l144.87-181.07c3.5391-4.4258 8.8906-7.0039 14.562-7.0039 5.668 0 11.031 2.5781 14.57 7.0039l87.707 109.63 101.45-152.18c3.457-5.1836 9.2852-8.3008 15.52-8.3008 6.2422 0 12.062 3.1172 15.527 8.3008l141.21 211.84zm-397.92-439.39c-46.594 0-84.43 37.836-84.43 84.43 0 46.602 37.836 84.43 84.43 84.43 46.602 0 84.43-37.828 84.43-84.43 0-46.594-37.828-84.43-84.43-84.43zm0 37.316c26.008 0 47.121 21.109 47.121 47.113 0 26.008-21.117 47.121-47.121 47.121-26.008 0-47.113-21.117-47.113-47.121 0-26.008 21.109-47.113 47.113-47.113z" fill-rule="evenodd"/>
</svg>
