<?xml version="1.0" encoding="UTF-8"?>
<svg width="512pt" height="512pt" version="1.1" viewBox="0 0 512 512" xmlns="http://www.w3.org/2000/svg">
 <g>
  <path fill="#0092e4" d="m441.86 239.11h-310.79c-9.2148 0-16.895 7.6797-16.895 16.895s7.6797 16.895 16.895 16.895h310.79l-71.168 71.168c-6.6562 6.6562-6.6562 17.406 0 24.062s17.406 6.6562 24.062 0l99.84-99.84c3.0703-3.0703 5.1211-7.6797 5.1211-11.777 0-4.0977-1.5352-8.7031-5.1211-11.777l-100.35-100.86c-3.0703-3.0703-7.6797-5.1211-11.777-5.1211-4.0977 0-8.7031 1.5352-11.777 5.1211-6.6562 6.6562-6.6562 17.406 0 24.062z"/>
  <path fill="#0092e4" d="m80.383 476.67h156.16c37.375 0 67.586-30.207 67.586-67.586v-62.973c0-9.2148-7.6797-16.895-16.895-16.895s-16.895 7.6797-16.895 16.895v62.977c0 18.434-15.359 33.793-33.793 33.793l-156.16-0.003906c-18.434 0-33.793-15.359-33.793-33.793l0.003906-306.18c0-18.434 15.359-33.793 33.793-33.793h156.16c18.434 0 33.793 15.359 33.793 33.793v62.977c0 9.2148 7.6797 16.895 16.895 16.895s16.895-7.6797 16.895-16.895v-62.977c0-37.375-30.207-67.586-67.586-67.586l-156.16 0.003906c-37.375 0-67.586 30.207-67.586 67.586v306.18c0.003906 37.375 30.211 67.582 67.586 67.582z"/>
 </g>
</svg>
