<?xml version="1.0" encoding="UTF-8"?>
<svg width="512pt" height="512pt" version="1.1" viewBox="0 0 512 512" xmlns="http://www.w3.org/2000/svg">
 <path d="m385.41 172.31c0-65.445-53.195-118.69-118.58-118.69h-122.66c-65.383 0-118.58 53.246-118.58 118.69v32.41c0 51.051 32.434 96.242 80.711 112.46l4.7461 1.5938-2.5078 4.332c-6.4414 11.117-15.188 28.578-26.738 53.383-1.3867 2.9766-0.76953 6.5391 1.5469 8.8672 2.3008 2.3008 5.9609 2.9453 8.8359 1.6094l138.94-63.555h35.707c65.383 0 118.58-53.242 118.58-118.69v-32.41zm-15.734 32.414c0 56.766-46.137 102.95-102.84 102.95h-37.418c-1.1211 0-2.2539 0.24609-3.2734 0.71875l-120.84 55.273 5.2344-10.398c4.7773-9.4961 13.414-26.238 17.566-31.66l0.47266-0.60938 0.66016-0.39844c2.0625-1.25 3.4219-3.332 3.7266-5.7305 0.53906-4.1797-2.293-8.0234-6.4453-8.7539-49.355-8.6367-85.188-51.281-85.188-101.39v-32.41c0-56.766 46.137-102.95 102.84-102.95h122.66c56.711 0 102.84 46.188 102.84 102.95l-0.003906 32.406z" fill="#0092e4"/>
 <path d="m387.75 126.09c2.1406 5.5898 3.8945 11.371 5.2539 17.305 44.551 11.281 77.66 51.586 77.66 99.637v32.41c0 50.109-35.828 92.758-85.188 101.39-4.1484 0.73047-6.9805 4.582-6.4453 8.7539 0.30859 2.3945 1.6641 4.4805 3.7266 5.7305l0.66016 0.39844 0.47266 0.60938c4.1523 5.418 12.789 22.16 17.566 31.66l5.2344 10.398-120.83-55.27c-1.0195-0.46484-2.1523-0.71875-3.2734-0.71875h-37.418c-23.316 0-44.758-7.9141-62.02-21.07l-16.047 7.3438c20.867 18.324 48.184 29.461 78.066 29.461h35.707l138.94 63.551c2.8789 1.332 6.5391 0.69141 8.8359-1.6094 2.3125-2.3281 2.9336-5.8945 1.5469-8.8672-11.551-24.805-20.297-42.266-26.738-53.383l-2.5078-4.332 4.7461-1.5938c48.273-16.211 80.707-61.406 80.707-112.45v-32.41c0-58.645-42.73-107.43-98.652-116.94z" fill="#0092e4"/>
 <path d="m112.82 168.9c-12.324 0-22.348 10.023-22.348 22.348s10.023 22.355 22.348 22.355c12.324 0 22.348-10.023 22.348-22.355 0.003906-12.32-10.023-22.348-22.348-22.348z" fill="#0092e4"/>
 <path d="m298.2 168.9c-12.324 0-22.348 10.023-22.348 22.348s10.023 22.355 22.348 22.355c12.324 0 22.348-10.023 22.348-22.355 0-12.32-10.023-22.348-22.348-22.348z" fill="#0092e4"/>
 <path d="m205.51 168.9c-12.324 0-22.348 10.023-22.348 22.348s10.023 22.355 22.348 22.355c12.324 0 22.348-10.023 22.348-22.355 0-12.32-10.023-22.348-22.348-22.348z" fill="#0092e4"/>
</svg>
