<?xml version="1.0" encoding="UTF-8"?>
<svg width="512pt" height="512pt" version="1.1" viewBox="0 0 512 512" xmlns="http://www.w3.org/2000/svg">
 <path d="m128.06 208c2.1211-64.418 55-116 119.94-116h16c66.277 0 120 53.719 120 120h-20c-2.8789 0-5.6406 0.5-8.2188 1.4414-3.3594-52.164-46.762-93.441-99.777-93.441-51.703 0-94.238 39.238-99.461 89.559-2.6602-1-5.5391-1.5586-8.5391-1.5586zm-16 0c2.1211-73.262 62.16-132 135.94-132h16c75.121 0 136 60.883 136 136 22.102 0 40 17.898 40 40v80c0 22.102-17.898 40-40 40h-36c-13.262 0-24-10.738-24-24v-128c0-46.398-37.602-84-84-84s-84 37.602-84 84v124c0 13.262-10.738 24-24 24h-14v32h82v-8c0-13.262 10.738-24 24-24h26c20.98 0 38 17.02 38 38 0 20.98-17.02 38-38 38h-26c-13.262 0-24-10.738-24-24v-4h-86c-6.6211 0-12-5.3789-12-12v-36h-6c-22.102 0-40-17.898-40-40v-80c0-22.102 17.898-40 40-40zm13.941 144h22c4.4219 0 8-3.5781 8-8v-112c0-4.4219-3.5781-8-8-8h-36c-13.262 0-24 10.738-24 24v80c0 13.262 10.738 24 24 24zm230-32v-84c0-4.4219 3.5781-8 8-8h36c13.262 0 24 10.738 24 24v80c0 13.262-10.738 24-24 24h-36c-4.4219 0-8-3.5781-8-8zm-90 64c12.16 0 22 9.8398 22 22s-9.8398 22-22 22h-26c-4.4219 0-8-3.5781-8-8v-28c0-4.4219 3.5781-8 8-8z" fill="#0092e4" fill-rule="evenodd"/>
</svg>
