<?xml version="1.0" encoding="UTF-8"?>
<svg width="512pt" height="512pt" version="1.1" viewBox="0 0 512 512" xmlns="http://www.w3.org/2000/svg">
 <path d="m125.44 314.03c25.172 25.172 58.668 39.039 94.293 39.039s69.121-13.867 94.293-39.039c51.945-51.945 51.945-136.54 0-188.59-51.945-51.945-136.54-51.945-188.59 0-51.949 51.945-51.949 136.53 0 188.59zm7.5703-181.02c23.895-23.895 55.359-35.84 86.719-35.84 31.465 0 62.828 11.945 86.719 35.84 47.785 47.785 47.785 125.65 0 173.44-23.148 23.148-53.973 35.945-86.719 35.945-32.746 0-63.574-12.801-86.719-35.945-47.785-47.895-47.785-125.65 0-173.44z" fill="#0092e4"/>
 <path d="m102.83 336.64c31.254 31.254 72.746 48.426 116.91 48.426 42.348 0 82.238-16 112.96-44.801l15.254 15.254-11.309 11.309c-2.1328 2.1328-2.1328 5.4414 0 7.5742l75.414 75.414c5.2266 5.2266 12.055 7.7852 18.879 7.7852 6.8281 0 13.652-2.5586 18.879-7.7852 10.453-10.348 10.453-27.309 0-37.762l-75.414-75.414c-2.0273-2.0273-5.5469-2.0273-7.5742 0l-11.309 11.309-15.254-15.254c28.906-30.719 44.801-70.613 44.801-112.96 0-44.16-17.172-85.652-48.426-116.91-64.426-64.426-169.39-64.426-233.81 0-31.25 31.145-48.426 72.746-48.426 116.91s17.176 85.652 48.43 116.91zm256.43 22.613 11.309-11.309 71.68 71.68c6.1875 6.1875 6.1875 16.426 0 22.613s-16.426 6.1875-22.613 0l-71.68-71.68zm-248.86-248.96c30.082-30.078 69.762-45.227 109.34-45.227s79.254 15.039 109.33 45.227c29.227 29.227 45.332 68.055 45.332 109.33 0 41.281-16.105 80.105-45.332 109.33-29.227 29.227-68.055 45.332-109.33 45.332-41.281 0-80.105-16.105-109.33-45.332-29.23-29.117-45.336-67.945-45.336-109.22 0-41.281 16.105-80.215 45.332-109.44z" fill="#0092e4"/>
</svg>
