<?xml version="1.0" encoding="UTF-8"?>
<svg width="1200pt" height="1200pt" version="1.1" viewBox="0 0 1200 1200" xmlns="http://www.w3.org/2000/svg">
 <path fill="#ffffff" d="m600 1080c127.3 0 249.39-50.57 339.41-140.59 90.02-90.016 140.59-212.11 140.59-339.41s-50.57-249.39-140.59-339.41c-90.016-90.02-212.11-140.59-339.41-140.59s-249.39 50.57-339.41 140.59c-90.02 90.016-140.59 212.11-140.59 339.41 0 84.258 22.18 167.03 64.309 240s102.72 133.56 175.69 175.69 155.74 64.309 240 64.309zm0-45.719c-61.203 0.007812-121.71-12.934-177.55-37.98-55.844-25.047-105.75-61.629-146.45-107.34 16.711-47.902 43.82-91.512 79.383-127.7s78.691-64.047 126.3-81.586c35.418 22.344 76.441 34.203 118.32 34.203s82.902-11.859 118.32-34.203c47.617 17.52 90.762 45.371 126.32 81.559 35.566 36.188 62.668 79.809 79.355 127.72-40.695 45.711-90.602 82.293-146.45 107.34-55.84 25.047-116.35 37.988-177.55 37.98zm-178.08-544.2c0-47.227 18.762-92.523 52.156-125.92 33.398-33.398 78.691-52.16 125.92-52.16s92.523 18.762 125.92 52.16c33.395 33.395 52.156 78.691 52.156 125.92 0 47.23-18.762 92.527-52.156 125.92-33.398 33.398-78.691 52.16-125.92 52.16-47.211-0.0625-92.469-18.848-125.85-52.23-33.383-33.383-52.164-78.641-52.227-125.85zm-256.2 109.92c-0.0625-91.195 28.582-180.1 81.875-254.1 53.293-74 128.53-129.35 215.05-158.2 86.512-28.844 179.91-29.723 266.95-2.5078 87.039 27.215 163.3 81.137 217.98 154.12 54.676 72.988 84.984 161.34 86.633 252.52 1.6523 91.18-25.445 180.57-77.445 255.48-38.586-89.039-109.03-160.46-197.52-200.28 41.594-42.117 64.809-98.996 64.559-158.19-0.24609-59.191-23.934-115.88-65.879-157.64-41.941-41.766-98.727-65.219-157.92-65.219s-115.98 23.453-157.92 65.219c-41.945 41.77-65.633 98.453-65.879 157.64-0.25 59.195 22.965 116.07 64.559 158.19-88.496 39.816-158.94 111.24-197.52 200.28-50.543-72.562-77.602-158.89-77.52-247.32z"/>
</svg>
