<?xml version="1.0" encoding="UTF-8"?>
<svg width="512pt" height="512pt" version="1.1" viewBox="0 0 512 512" xmlns="http://www.w3.org/2000/svg">
 <path fill="#ffffff" d="m507.06 10.609c-1.6406-3.1914-4.1289-5.8711-7.1914-7.7422-3.0625-1.8711-6.582-2.8633-10.172-2.8672h-467.33c-4.8398 0.0039062-9.5039 1.8008-13.094 5.043-3.5898 3.2461-5.8477 7.707-6.3359 12.52-0.49219 4.8125 0.82031 9.6367 3.6836 13.539l192.96 263.48v197.88c-0.015625 3.7852 1.0781 7.4961 3.1406 10.668 2.0625 3.1758 5.0078 5.6758 8.4727 7.1992 2.5352 1.1172 5.2734 1.6875 8.043 1.6758 4.8164-0.023438 9.4531-1.832 13.008-5.082l77.109-69.961c4.0859-3.6953 6.4219-8.9492 6.418-14.461v-127.64l189.56-263.93c2.1484-2.8945 3.4492-6.3281 3.7578-9.918 0.30469-3.5898-0.39844-7.1953-2.0273-10.406zm-285.14 475.54v-188.27h71.523v123.39zm74.258-202.23h-76.66l-191.62-261.59h456.45z"/>
</svg>
