<?xml version="1.0" encoding="UTF-8"?>
<svg width="512pt" height="512pt" version="1.1" viewBox="0 0 512 512" xmlns="http://www.w3.org/2000/svg">
 <path fill="#ffffff" d="m448.19 73.52c-22.887-18.898-52.254-29.309-82.691-29.309-35.199 0-69.254 14-93.422 38.418-5.6367 5.6719-10.793 11.922-15.574 18.848-24.699-35.824-64.602-57.473-107.6-57.473-7.875 0-15.867 0.72656-23.75 2.1562-40.688 7.4102-72.668 29.789-95.051 66.504-32.043 52.629-34.578 101.23-7.7812 148.58 14.375 25.363 33.078 50.176 57.207 75.844 44.398 47.199 96.941 91.98 165.41 140.97 3.6445 2.5938 7.5273 3.8984 11.516 3.8984 6.1875 0 10.375-3.1328 12.762-4.9336 60.855-43.418 110.79-85.25 152.68-127.93 23.562-24.012 50.254-53.52 69.766-90.207 8.1875-15.449 17.539-36.188 16.992-59.617-1.2227-51.281-21.562-93.59-60.473-125.75zm18.504 172.11c-17.801 33.492-42.832 61.098-64.957 83.66-39.891 40.641-87.449 80.602-145.36 122.16-64.461-46.453-114.23-89.043-156.25-133.73-22.574-24.012-39.957-47.043-53.199-70.418-21.582-38.148-19.262-76.262 7.332-119.93 18-29.539 43.57-47.504 75.945-53.406 6.1992-1.1328 12.496-1.6953 18.703-1.6953 38.578 0 72.738 21.273 91.277 56.758 1.0586 2.0664 2.0977 4.0352 3.8164 7.2305 2.4531 4.625 7.2539 7.4961 12.461 7.4961h0.24219c5.293-0.089844 10.098-3.1328 12.441-7.8867 6.7578-13.707 14.066-24.293 23.023-33.352 18.91-19.102 45.637-30.035 73.34-30.035 23.891 0 46.855 8.1094 64.668 22.836 32.328 26.68 49.219 61.891 50.242 104.61 0.375 16.777-6.7344 32.508-13.723 45.695z"/>
</svg>
