<?xml version="1.0" encoding="UTF-8"?>
<svg width="512pt" height="512pt" version="1.1" viewBox="0 0 512 512" xmlns="http://www.w3.org/2000/svg">
 <g>
  <path fill="#ffffff" d="m61.441 432.33h26.062v61.441h-0.003906c-0.007812 5.1836 3.1094 9.8633 7.8984 11.848 4.7891 1.9844 10.305 0.88281 13.965-2.7852l70.656-70.504h101.58c14.914-0.066406 29.199-6.0234 39.75-16.57 10.547-10.547 16.5-24.832 16.57-39.75v-74.391l64.512 64.305c3.6602 3.6719 9.1719 4.7695 13.961 2.7852 4.7891-1.9844 7.9102-6.6641 7.8984-11.848v-61.441l26.266 0.003906c14.918-0.070312 29.203-6.0234 39.75-16.57 10.547-10.551 16.504-24.836 16.57-39.75v-177.05c-0.066406-14.918-6.0234-29.203-16.57-39.75-10.547-10.547-24.832-16.504-39.75-16.57h-225.28c-14.918 0.066406-29.203 6.0234-39.75 16.57-10.547 10.547-16.504 24.832-16.57 39.75v80.23h-107.52c-14.918 0.066406-29.203 6.0234-39.75 16.57s-16.504 24.832-16.57 39.75v177.2c0.011718 14.953 5.9453 29.289 16.496 39.883 10.555 10.59 24.871 16.574 39.824 16.641zm133.12-370.28c0-8.1484 3.2383-15.961 9-21.723 5.7617-5.7617 13.574-8.9961 21.723-8.9961h225.28c8.1484 0 15.961 3.2344 21.723 8.9961s9 13.574 9 21.723v177c0 8.1445-3.2383 15.961-9 21.719-5.7617 5.7617-13.574 9-21.723 9h-39.062c-7.0703 0-12.801 5.7305-12.801 12.801v43.266l-52.379-52.125c-2.4062-2.3984-5.6641-3.7422-9.0625-3.7383h-111.97c-8.1484 0-15.961-3.2344-21.723-8.9961-5.7617-5.7617-9-13.574-9-21.723zm-163.84 136.8c0-8.1445 3.2383-15.961 9-21.723 5.7617-5.7578 13.574-8.9961 21.723-8.9961h107.52v70.914c0.066406 14.914 6.0234 29.199 16.57 39.746 10.547 10.551 24.832 16.504 39.75 16.57h87.039v80.438c0 8.1484-3.2383 15.961-8.9961 21.723-5.7617 5.7617-13.578 8.9961-21.723 8.9961h-106.86c-3.3984-0.003906-6.6562 1.3398-9.0625 3.7383l-52.379 52.531v-43.266c0-3.3945-1.3477-6.6484-3.75-9.0508-2.3984-2.3984-5.6562-3.7461-9.0508-3.7461h-39.062c-8.1484 0-15.961-3.2383-21.723-9s-9-13.574-9-21.723z"/>
  <path fill="#ffffff" d="m337.92 167.94c5.1641-0.023438 9.8125-3.1484 11.781-7.9258 1.9688-4.7812 0.87109-10.273-2.7852-13.926-3.6523-3.6562-9.1445-4.7539-13.926-2.7852-4.7773 1.9688-7.9023 6.6172-7.9219 11.785-0.027343 3.4141 1.3164 6.6992 3.7305 9.1172 2.418 2.4141 5.7031 3.7617 9.1211 3.7344z"/>
  <path fill="#ffffff" d="m276.73 167.94c5.168-0.023438 9.8164-3.1484 11.785-7.9258 1.9688-4.7812 0.87109-10.273-2.7852-13.926-3.6523-3.6562-9.1445-4.7539-13.926-2.7852-4.7773 1.9688-7.9023 6.6172-7.9219 11.785-0.03125 3.4141 1.3164 6.6992 3.7305 9.1172 2.418 2.4141 5.7031 3.7617 9.1172 3.7344z"/>
  <path fill="#ffffff" d="m399.36 167.94c5.168-0.023438 9.8164-3.1484 11.785-7.9258 1.9688-4.7812 0.87109-10.273-2.7852-13.926-3.6523-3.6562-9.1484-4.7539-13.926-2.7852s-7.9023 6.6172-7.9258 11.785c-0.027343 3.4141 1.3203 6.6992 3.7344 9.1172 2.418 2.4141 5.6992 3.7617 9.1172 3.7344z"/>
 </g>
</svg>
